<svg fill="none" height="222" viewBox="0 0 312 222" width="312" xmlns="http://www.w3.org/2000/svg"><path d="m0 0h312v222h-312z" fill="#fff"/><path d="m154 181c41.974 0 76-34.026 76-76 0-41.9736-34.026-76-76-76s-76 34.0264-76 76c0 41.974 34.026 76 76 76z" fill="#e9edf8"/><path d="m95.0466 134c-4.8544 5.51-9.3478 11.327-13.4521 17.416-.7472 1.071-1.0253 2.401-.7701 3.681 1.4891 7.575 11.8966 38.06 12.6774 39.604h.2696c.4731-2.51 3.4111-34.03 3.4111-34.03l22.7525-21.414" fill="#63b2bf"/><path d="m91.2222 90.5897c1.9735 3.7567 6.4505 11.1773 9.3878 15.9843 1.545 2.529 5.173 2.855 7.856.688 6.859-5.537 18.097-15.0975 18.097-15.0975l1.518-14.6064c-4.762 3.2731-13.171 3.2067-16.879 7.6463l-6.52 7.905-6.714-5.3542z" fill="#368c99"/><path d="m75.4746 56.5996h5.1133v38.167h-5.1133z" fill="#87064b" transform="matrix(.92654242 -.3761903 .3761903 .92654242 -15.748039 32.550482)"/><path d="m118.197 152.292c-15.736 18.355-40.8313 36.156-53.197 43.668l.6006-.421c2.8078-7.553 33.5155-56.326 36.5184-59.758z" fill="#fff"/><path d="m110.997 143.191c-2.828-3.51-6.195-6.131-12.1838-4.891 13.1618 13.086-1.8672 27.077-10.7257 37.04-3.4564 3.889-19.9337 16.316-22.692 20.707 6.4314-4.391 24.0508-16.74 30.1045-22.047 7.829-6.863 16.567-14.037 22.606-21.947-2.79-2.437-4.765-5.954-7.109-8.862z" fill="#63b2bf"/><path d="m110.866 113.369c-.137 1.687-.716 3.307-1.68 4.699-4.834 3.86-13.1757 12.055-16.2041 17.449l-.3618.348c3.811.677 7.4609 2.064 10.7579 4.091 1.699 1.291 3.259 2.755 4.655 4.369l8.726 9.411 2.198-1.447c1.981-1.653 6.858-4.878 9.168-8.499 5.586-8.754 6.189-18.857 6.615-29.234 2.046-6.303 2.519-19.2465 2.141-25.7018-.416-7.4584-2.398-14.7456-5.818-21.3869.464.9969-6.256 5.4036-7.15 5.7754-2.343.9742.372 1.6043-1.949 2.5345-5.045 2.0229-5.359 7.0485-10.977 13.7459l-8.056 9.902 6.679 6.0949z" fill="#001927"/><path d="m128.161 105.318c-3.12-.141-5.668-2.54-5.996-5.6455l-.925-7.4716c-.184-2.8148.642-5.6029 2.33-7.863.821-1.6949 2.3-2.9799 4.093-3.5559 1.515-.1555 3.003.4783 3.94 1.678.909 1.1921 1.538 2.5734 1.84 4.0417 1.211 4.7274 2.607 18.8163-5.282 18.8163z" fill="#63b2bf"/><path d="m80.0164 75.9621c-.4119-.8205 2.1889-2.4496 2.1889-2.4496 2.0786.72 4.386.1668 5.9123-1.4173l2.4978 2.5623 3.786 5.8749-1.2356-1.6895c5.198 4.0354 14.1652 10.8942 19.3632 14.9301 0 0 6.87-9.4557 10.938-12.4074.915-.7481 1.964-1.315 3.092-1.6703 4.1-1.0296 6.519 2.2287 7.135 5.901.823 4.9144-2.437 7.9231-5.375 11.2365-2.76 3.1139-5.562 6.2242-8.568 9.1052l-3.572 3.422c-.686.662-1.608 1.024-2.562 1.006-.954-.017-1.862-.413-2.524-1.1-4.917-5.112-21.6974-24.5557-21.6974-24.5557h-5.8792z" fill="#fff"/><path d="m128.732 94.386c-4.885 3.9641-9.463 7.767-16.228 6.219-5.806-1.329-10.127-6.2062-14.551-9.8084-4.0002-3.2579-8.3629-6.2829-10.1104-11.1003-.4805.0129-.955.0221-1.0812.0117-1.0256.1167-2.0383.3276-3.0253.6299-.597.1818-1.2133.2932-1.8362.3321l1.6159 4.0401h5.8793s16.7809 19.4429 21.6979 24.5559c.662.687 1.569 1.083 2.523 1.1.954.018 1.876-.344 2.563-1.006l3.571-3.422c3.007-2.881 5.808-5.9912 8.569-9.1051 1.711-1.7191 3.209-3.6388 4.46-5.7173-1.352 1.0998-2.711 2.1859-4.047 3.2704z" fill="#63b2bf"/><path d="m106.449 54.3047s-3.803.7149-2.295 3.7298c0 0-8.8918-8.2728 1.771-14.0067z" fill="#509ba8"/><path d="m120.261 72.2406c.771-.6712.116-1.8793-.719-1.9864-.26-.2304-.604-.3426-.95-.3101s-.664.2069-.876.4817c-.551.733-7.021-1.1626-8.047-3.518-.593-1.3621-2.965-2.9357-2.376-1.5822 2.801 6.4314 3.329 17.3571 4.82 24.0985l.197-.5931c1.11-3.3292 7.568-9.361 9.241-12.4464z" fill="#0d6069"/><path d="m126.966 71.7542c.399-1.2289 1.118-2.3292 2.084-3.1875-.516-1.2957-.948-2.6237-1.291-3.9755l.734-.6006c3.696-6.0458 4.505-12.8708.633-18.8057-2.124-3.2548-5.811-5.9748-9.638-5.3007l-.355.2548c-5.833.4241-12.467 4.0625-14.727 9.4557-.831 2.8193-.963 5.7984-.386 8.6802.237 1.0592 3.719 8.1134 6.456 13.3405.756 1.4449 2.431 2.1512 3.994 1.6849l2.851-.8219c1.11 1.7693 2.288 3.7276 3.315 5.1827l6.372-2.3151c-.368-1.1669-.382-2.4165-.042-3.5918z" fill="#fff"/><path d="m136.061 81.5669c-.379-2.2699-.912-4.5166-1.155-6.8081-.235-2.2179.076-4.4469-.131-6.6664-.355-3.8144-.339-7.9774-.674-11.7935-.666-7.595-1.606-14.6919-10.002-17.6289-5.666-1.9814-14.776 2.2495-18.73 5.7162-1.031.9049-3.472 5.5945-3.279 7.139.808 6.4381 10.987 6.8187 15.263 5.086 6.075-2.4618 6.163 3.8381 6.325 8.8578.26 3.5882-1.006 7.1199-3.487 9.7252-1.433 1.7056-2.53 3.6677-3.232 5.782-.957 2.1941-.374 3.8441-.554 6.0623 1.417-2.548 3.424-4.7203 5.852-6.3356 1.133-.6763 2.225-1.4203 3.269-2.2279 1.299-.9953 2.947-1.4203 4.565-1.1774 1.619.2428 3.069 1.1327 4.019 2.4655 1.026 1.4929 1.842 3.1203 2.423 4.836-.146-1.0126-.303-2.0233-.472-3.0322z" fill="#509ba8"/><path d="m134.906 74.7588c-.235-2.2179.076-4.4471-.131-6.6664-.332-3.5657-.349-7.4261-.622-11.0328-3.117 3.5463-6.635 6.7194-10.482 9.4557.013 3.2354-1.235 6.3488-3.479 8.6788-1.434 1.7058-2.531 3.6679-3.233 5.7823-.957 2.194-.373 3.844-.554 6.0623 1.418-2.5481 3.424-4.7203 5.852-6.3357 1.133-.6763 2.225-1.4203 3.269-2.2278 1.299-.9955 2.947-1.4205 4.565-1.1776 1.619.2429 3.069 1.1328 4.019 2.4657 1.026 1.4929 1.842 3.1202 2.423 4.8359-.145-1.0125-.303-2.0231-.471-3.032-.38-2.2702-.913-4.5169-1.156-6.8084z" fill="#0d6069"/><path d="m118.806 56.2256c.103-1.7141 1.422-3.107 3.127-3.3052 1.428.2045 2.599 1.2335 2.985 2.6224.564 1.5271.444 3.2228-.329 4.6553-.68 1.2224-1.867 2.0804-3.24 2.3426" fill="#fff"/><g fill="#caced9"><path d="m140 46h10v35h-10z"/><path d="m165 51h10v30h-10z"/><path d="m150 53h8v28h-8z"/><path d="m157 48h8v33h-8z"/><path d="m174 49h10v32h-10z"/><path d="m225 74h7v27h-7z" transform="matrix(0 1 -1 0 299 -151)"/><path d="m230 68h6v27h-6z" transform="matrix(0 1 -1 0 298 -162)"/><path d="m190.426 130.73h6.91829v27.3905h-6.91829z" transform="matrix(-.94338487 .33170015 -.33170015 -.94338487 413.434167 190.894372)"/><path d="m227 61h7v27h-7z" transform="matrix(0 1 -1 0 288 -166)"/><path d="m184 55h8v26h-8z"/><path d="m190 51h8v30h-8z"/><path d="m140 158h10v29h-10z"/><path d="m164 162h10v25h-10z"/><path d="m150 164h8v23h-8z"/><path d="m156 159h8v28h-8z"/><path d="m208 187h11v33h-11z" transform="matrix(-1 0 0 -1 416 374)"/><path d="m183 187h10v28h-10z" transform="matrix(-1 0 0 -1 366 374)"/><path d="m198 187h7v27h-7z" transform="matrix(-1 0 0 -1 396 374)"/><path d="m191 187h8v31h-8z" transform="matrix(-1 0 0 -1 382 374)"/><path d="m174.112 134.638h10.4993v36.0915h-10.4993z" transform="matrix(-1 0 0 -1 348.224 269.276)"/><path d="m150 134.547h11v31h-11z" transform="matrix(-1 0 0 -1 300 269.094)"/><path d="m166 134.547h8v29h-8z" transform="matrix(-1 0 0 -1 332 269.094)"/><path d="m158 134.547h8v34h-8z" transform="matrix(-1 0 0 -1 316 269.094)"/></g><path clip-rule="evenodd" d="m249 28v166h-115v-166zm-109 159h103v-49h-103zm103-53-103 .024v-49.024h103zm-103-53h103v-46h-103z" fill="#f0a534" fill-rule="evenodd"/></svg>